<?xml version="1.0" encoding="UTF-8" standalone="no"?>
<!-- Created with Inkscape (http://www.inkscape.org/) -->

<svg
   width="108"
   height="144"
   viewBox="0 0 28.574999 38.1"
   version="1.1"
   id="svg1"
   sodipodi:docname="6s.svg"
   inkscape:version="1.4.3 (0d15f75, 2025-12-25)"
   xmlns:inkscape="http://www.inkscape.org/namespaces/inkscape"
   xmlns:sodipodi="http://sodipodi.sourceforge.net/DTD/sodipodi-0.dtd"
   xmlns="http://www.w3.org/2000/svg"
   xmlns:svg="http://www.w3.org/2000/svg">
  <sodipodi:namedview
     id="namedview1"
     pagecolor="#ffffff"
     bordercolor="#000000"
     borderopacity="0.25"
     inkscape:showpageshadow="2"
     inkscape:pageopacity="0.0"
     inkscape:pagecheckerboard="0"
     inkscape:deskcolor="#d1d1d1"
     inkscape:document-units="mm"
     showguides="true"
     inkscape:zoom="4"
     inkscape:cx="42.25"
     inkscape:cy="93.125"
     inkscape:window-width="1920"
     inkscape:window-height="991"
     inkscape:window-x="-9"
     inkscape:window-y="-9"
     inkscape:window-maximized="1"
     inkscape:current-layer="layer1">
    <sodipodi:guide
       position="14.2875,19.05"
       orientation="0.80000001,0.59999999"
       id="guide1"
       inkscape:locked="false"
       inkscape:label=""
       inkscape:color="rgb(0,134,229)" />
    <sodipodi:guide
       position="14.2875,19.05"
       orientation="-1,0"
       id="guide2"
       inkscape:locked="false"
       inkscape:label=""
       inkscape:color="rgb(0,134,229)" />
    <sodipodi:guide
       position="53.999999,-33.899999"
       orientation="0,1"
       id="guide3"
       inkscape:locked="false"
       inkscape:label=""
       inkscape:color="rgb(0,134,229)" />
    <sodipodi:guide
       position="14.2875,12.7"
       orientation="0,1"
       id="guide4"
       inkscape:locked="false"
       inkscape:label=""
       inkscape:color="rgb(0,134,229)" />
    <sodipodi:guide
       position="14.2875,25.4"
       orientation="0,1"
       id="guide5"
       inkscape:locked="false"
       inkscape:label=""
       inkscape:color="rgb(0,134,229)" />
    <sodipodi:guide
       position="14.2875,31.749999"
       orientation="0,1"
       id="guide6"
       inkscape:locked="false"
       inkscape:label=""
       inkscape:color="rgb(0,134,229)" />
    <sodipodi:guide
       position="14.2875,6.3499999"
       orientation="0,1"
       id="guide7"
       inkscape:locked="false"
       inkscape:label=""
       inkscape:color="rgb(0,134,229)" />
    <sodipodi:guide
       position="14.2875,9.5249998"
       orientation="0,1"
       id="guide8"
       inkscape:locked="false"
       inkscape:label=""
       inkscape:color="rgb(0,134,229)" />
    <sodipodi:guide
       position="14.2875,28.575"
       orientation="0,1"
       id="guide9"
       inkscape:locked="false"
       inkscape:label=""
       inkscape:color="rgb(0,134,229)" />
    <sodipodi:guide
       position="14.2875,19.05"
       orientation="-0.8,0.6"
       id="guide10"
       inkscape:locked="false" />
    <sodipodi:guide
       position="14.2875,19.05"
       orientation="0,-1"
       id="guide12"
       inkscape:locked="false" />
    <sodipodi:guide
       position="14.2875,28.575001"
       orientation="-0.55470013,-0.83205034"
       id="guide13"
       inkscape:locked="false" />
    <sodipodi:guide
       position="14.2875,22.225"
       orientation="0,-1"
       id="guide15"
       inkscape:locked="false" />
    <sodipodi:guide
       position="14.2875,15.875"
       orientation="0,-1"
       id="guide16"
       inkscape:locked="false" />
    <sodipodi:guide
       position="-23.8125,1.7197918"
       orientation="-1,0"
       id="guide17"
       inkscape:locked="false"
       inkscape:label=""
       inkscape:color="rgb(0,134,229)" />
    <sodipodi:guide
       position="-21.166666,1.7859375"
       orientation="-1,0"
       id="guide18"
       inkscape:locked="false"
       inkscape:label=""
       inkscape:color="rgb(0,134,229)" />
    <sodipodi:guide
       position="9.5249998,19.05"
       orientation="-1,0"
       id="guide26"
       inkscape:locked="false"
       inkscape:label=""
       inkscape:color="rgb(0,134,229)" />
    <sodipodi:guide
       position="19.05,19.05"
       orientation="-1,0"
       id="guide27"
       inkscape:locked="false"
       inkscape:label=""
       inkscape:color="rgb(0,134,229)" />
    <sodipodi:guide
       position="7.1437499,19.05"
       orientation="-1,0"
       id="guide28"
       inkscape:locked="false"
       inkscape:label=""
       inkscape:color="rgb(0,134,229)" />
    <sodipodi:guide
       position="21.43125,19.05"
       orientation="-1,0"
       id="guide29"
       inkscape:locked="false"
       inkscape:label=""
       inkscape:color="rgb(0,134,229)" />
  </sodipodi:namedview>
  <defs
     id="defs1" />
  <g
     inkscape:label="图层 1"
     inkscape:groupmode="layer"
     id="layer1">
    <path
       d="M 8.4666679,6.8258955 A 1.3229171,0.50272828 0 0 1 7.1437494,7.3286232 1.3229171,0.50272828 0 0 1 5.8208344,6.826681 v 9.047925 a 1.3229162,0.50272794 0 0 1 1.322915,-0.502335 1.3229162,0.50272794 0 0 1 1.3229185,0.502728 z"
       style="fill:#008000;stroke-width:0.251841"
       id="path21" />
    <circle
       style="fill:#008000;stroke-width:0.264583"
       id="path25"
       cx="7.1437507"
       cy="6.8258948"
       r="1.3229165" />
    <ellipse
       style="fill:#008000;stroke-width:0.264583"
       id="path26"
       cx="7.1437507"
       cy="15.874997"
       rx="1.322916"
       ry="1.2402344" />
    <path
       d="M 15.610419,6.8791684 A 1.3229171,0.50272828 0 0 1 14.2875,7.3818964 1.3229171,0.50272828 0 0 1 12.964585,6.8799534 v 9.0479256 a 1.3229162,0.50272794 0 0 1 1.322915,-0.502335 1.3229162,0.50272794 0 0 1 1.322919,0.502728 z"
       style="fill:#008000;stroke-width:0.251841"
       id="path21-01" />
    <circle
       style="fill:#008000;stroke-width:0.264583"
       id="path25-25"
       cx="14.287502"
       cy="6.8791671"
       r="1.3229165" />
    <ellipse
       style="fill:#008000;stroke-width:0.264583"
       id="path26-0"
       cx="14.287502"
       cy="15.928271"
       rx="1.322916"
       ry="1.2402344" />
    <path
       d="M 15.610419,21.722272 A 1.3229171,0.50272828 0 0 1 14.2875,22.225 1.3229171,0.50272828 0 0 1 12.964585,21.723057 v 9.047927 a 1.3229162,0.50272794 0 0 1 1.322915,-0.502335 1.3229162,0.50272794 0 0 1 1.322919,0.502728 z"
       style="fill:#008000;stroke-width:0.251841"
       id="path21-01-3" />
    <circle
       style="fill:#008000;stroke-width:0.264583"
       id="path25-25-5"
       cx="14.287501"
       cy="21.722271"
       r="1.3229165" />
    <ellipse
       style="fill:#008000;stroke-width:0.264583"
       id="path26-0-1"
       cx="14.287501"
       cy="30.771374"
       rx="1.322916"
       ry="1.2402344" />
    <path
       d="M 22.754168,6.8258958 A 1.3229171,0.50272828 0 0 1 21.431249,7.3286235 1.3229171,0.50272828 0 0 1 20.108334,6.8266813 v 9.0479247 a 1.3229162,0.50272794 0 0 1 1.322915,-0.502335 1.3229162,0.50272794 0 0 1 1.322919,0.502728 z"
       style="fill:#008000;stroke-width:0.251841"
       id="path21-8" />
    <circle
       style="fill:#008000;stroke-width:0.264583"
       id="path25-2"
       cx="21.43125"
       cy="6.8258958"
       r="1.3229165" />
    <ellipse
       style="fill:#008000;stroke-width:0.264583"
       id="path26-6"
       cx="21.43125"
       cy="15.874997"
       rx="1.322916"
       ry="1.2402344" />
    <path
       d="M 8.4666685,21.722273 A 1.3229171,0.50272828 0 0 1 7.14375,22.225 1.3229171,0.50272828 0 0 1 5.820835,21.723058 v 9.047925 a 1.3229162,0.50272794 0 0 1 1.322915,-0.502335 1.3229162,0.50272794 0 0 1 1.3229185,0.502728 z"
       style="fill:#008000;stroke-width:0.251841"
       id="path21-0" />
    <circle
       style="fill:#008000;stroke-width:0.264583"
       id="path25-7"
       cx="7.1437516"
       cy="21.722271"
       r="1.3229165" />
    <ellipse
       style="fill:#008000;stroke-width:0.264583"
       id="path26-1"
       cx="7.1437516"
       cy="30.771374"
       rx="1.322916"
       ry="1.2402344" />
    <path
       d="M 22.754169,21.722273 A 1.3229171,0.50272828 0 0 1 21.43125,22.225 1.3229171,0.50272828 0 0 1 20.108335,21.723058 v 9.047925 a 1.3229162,0.50272794 0 0 1 1.322915,-0.502335 1.3229162,0.50272794 0 0 1 1.322919,0.502728 z"
       style="fill:#008000;stroke-width:0.251841"
       id="path21-0-3" />
    <circle
       style="fill:#008000;stroke-width:0.264583"
       id="path25-7-3"
       cx="21.431252"
       cy="21.722273"
       r="1.3229165" />
    <ellipse
       style="fill:#008000;stroke-width:0.264583"
       id="path26-1-5"
       cx="21.431252"
       cy="30.771374"
       rx="1.322916"
       ry="1.2402344" />
  </g>
</svg>
