<?xml version="1.0" encoding="UTF-8" standalone="no"?>
<!-- Created with Inkscape (http://www.inkscape.org/) -->

<svg
   width="108"
   height="144"
   viewBox="0 0 28.574999 38.1"
   version="1.1"
   id="svg1"
   sodipodi:docname="8s.svg"
   inkscape:version="1.4.3 (0d15f75, 2025-12-25)"
   xmlns:inkscape="http://www.inkscape.org/namespaces/inkscape"
   xmlns:sodipodi="http://sodipodi.sourceforge.net/DTD/sodipodi-0.dtd"
   xmlns="http://www.w3.org/2000/svg"
   xmlns:svg="http://www.w3.org/2000/svg">
  <sodipodi:namedview
     id="namedview1"
     pagecolor="#ffffff"
     bordercolor="#000000"
     borderopacity="0.25"
     inkscape:showpageshadow="2"
     inkscape:pageopacity="0.0"
     inkscape:pagecheckerboard="0"
     inkscape:deskcolor="#d1d1d1"
     inkscape:document-units="mm"
     showguides="true"
     inkscape:zoom="4"
     inkscape:cx="42.375"
     inkscape:cy="93.125"
     inkscape:window-width="1920"
     inkscape:window-height="991"
     inkscape:window-x="-9"
     inkscape:window-y="-9"
     inkscape:window-maximized="1"
     inkscape:current-layer="layer1">
    <sodipodi:guide
       position="14.2875,19.05"
       orientation="0.80000001,0.59999999"
       id="guide1"
       inkscape:locked="false"
       inkscape:label=""
       inkscape:color="rgb(0,134,229)" />
    <sodipodi:guide
       position="14.2875,19.05"
       orientation="-1,0"
       id="guide2"
       inkscape:locked="false"
       inkscape:label=""
       inkscape:color="rgb(0,134,229)" />
    <sodipodi:guide
       position="53.999999,-33.899999"
       orientation="0,1"
       id="guide3"
       inkscape:locked="false"
       inkscape:label=""
       inkscape:color="rgb(0,134,229)" />
    <sodipodi:guide
       position="14.2875,12.7"
       orientation="0,1"
       id="guide4"
       inkscape:locked="false"
       inkscape:label=""
       inkscape:color="rgb(0,134,229)" />
    <sodipodi:guide
       position="14.2875,25.4"
       orientation="0,1"
       id="guide5"
       inkscape:locked="false"
       inkscape:label=""
       inkscape:color="rgb(0,134,229)" />
    <sodipodi:guide
       position="14.2875,31.749999"
       orientation="0,1"
       id="guide6"
       inkscape:locked="false"
       inkscape:label=""
       inkscape:color="rgb(0,134,229)" />
    <sodipodi:guide
       position="14.2875,6.3499999"
       orientation="0,1"
       id="guide7"
       inkscape:locked="false"
       inkscape:label=""
       inkscape:color="rgb(0,134,229)" />
    <sodipodi:guide
       position="14.2875,9.5249998"
       orientation="0,1"
       id="guide8"
       inkscape:locked="false"
       inkscape:label=""
       inkscape:color="rgb(0,134,229)" />
    <sodipodi:guide
       position="14.2875,28.575"
       orientation="0,1"
       id="guide9"
       inkscape:locked="false"
       inkscape:label=""
       inkscape:color="rgb(0,134,229)" />
    <sodipodi:guide
       position="14.2875,19.05"
       orientation="-0.8,0.6"
       id="guide10"
       inkscape:locked="false" />
    <sodipodi:guide
       position="14.2875,19.05"
       orientation="0,-1"
       id="guide12"
       inkscape:locked="false" />
    <sodipodi:guide
       position="34.696034,14.969314"
       orientation="-0.55470013,-0.83205034"
       id="guide13"
       inkscape:locked="false" />
    <sodipodi:guide
       position="14.2875,22.225"
       orientation="0,-1"
       id="guide15"
       inkscape:locked="false" />
    <sodipodi:guide
       position="14.2875,15.875"
       orientation="0,-1"
       id="guide16"
       inkscape:locked="false" />
    <sodipodi:guide
       position="-23.8125,1.7197918"
       orientation="-1,0"
       id="guide17"
       inkscape:locked="false"
       inkscape:label=""
       inkscape:color="rgb(0,134,229)" />
    <sodipodi:guide
       position="-21.166666,1.7859375"
       orientation="-1,0"
       id="guide18"
       inkscape:locked="false"
       inkscape:label=""
       inkscape:color="rgb(0,134,229)" />
    <sodipodi:guide
       position="9.5249998,19.05"
       orientation="-1,0"
       id="guide26"
       inkscape:locked="false"
       inkscape:label=""
       inkscape:color="rgb(0,134,229)" />
    <sodipodi:guide
       position="19.05,19.05"
       orientation="-1,0"
       id="guide27"
       inkscape:locked="false"
       inkscape:label=""
       inkscape:color="rgb(0,134,229)" />
    <sodipodi:guide
       position="7.1437499,19.05"
       orientation="-1,0"
       id="guide28"
       inkscape:locked="false"
       inkscape:label=""
       inkscape:color="rgb(0,134,229)" />
    <sodipodi:guide
       position="21.43125,12.7"
       orientation="-1,0"
       id="guide29"
       inkscape:locked="false"
       inkscape:label=""
       inkscape:color="rgb(0,134,229)" />
  </sodipodi:namedview>
  <defs
     id="defs1" />
  <g
     inkscape:label="图层 1"
     inkscape:groupmode="layer"
     id="layer1">
    <path
       d="M 15.690226,10.640949 A 1.7325696,0.45953377 53.35898 0 1 14.287502,9.5249995 1.7325696,0.45953377 53.35898 0 1 13.621657,7.8609825 L 6.9854624,12.796829 a 1.7325685,0.45953346 53.35898 0 1 1.4024324,1.11616 1.7325685,0.45953346 53.35898 0 1 0.665274,1.664449 z"
       style="fill:#008000;stroke-width:0.275548"
       id="path21-01-3" />
    <ellipse
       style="fill:#008000;stroke-width:0.28949"
       id="path25-25-5"
       cx="16.169542"
       cy="-6.2391715"
       rx="1.7325689"
       ry="1.2092513"
       transform="rotate(53.35898)" />
    <ellipse
       style="fill:#008000;stroke-width:0.28949"
       id="path26-0-1"
       cx="16.169542"
       cy="2.0324335"
       rx="1.7325683"
       ry="1.1336732"
       transform="rotate(53.35898)" />
    <path
       d="m 10.089371,6.0391195 a 1.7325696,0.45953377 0 0 1 -1.7325712,0.459533 1.7325696,0.45953377 0 0 1 -1.732567,-0.458815 v 8.2705245 a 1.7325685,0.45953346 0 0 1 1.732567,-0.459175 1.7325685,0.45953346 0 0 1 1.7325712,0.459535 z"
       style="fill:#008000;stroke-width:0.275548"
       id="path21-0" />
    <ellipse
       style="fill:#008000;stroke-width:0.28949"
       id="path25-7"
       cx="8.3568029"
       cy="6.0391178"
       rx="1.7325689"
       ry="1.2092513" />
    <ellipse
       style="fill:#008000;stroke-width:0.28949"
       id="path26-1"
       cx="8.3568029"
       cy="14.310724"
       rx="1.7325683"
       ry="1.1336732" />
    <path
       d="m 13.072187,10.647923 a 0.45953377,1.7325696 36.64102 0 0 1.402724,-1.1159495 0.45953377,1.7325696 36.64102 0 0 0.665845,-1.664017 l 6.636193,4.9358455 a 0.45953346,1.7325685 36.64102 0 0 -1.402432,1.116161 0.45953346,1.7325685 36.64102 0 0 -0.665274,1.664449 z"
       style="fill:#008000;stroke-width:0.275548"
       id="path21-01-3-0" />
    <ellipse
       style="fill:#008000;stroke-width:0.28949"
       id="path25-25-5-8"
       cx="-0.99025422"
       cy="16.843676"
       rx="1.7325689"
       ry="1.2092513"
       transform="matrix(-0.59679949,0.80239041,0.80239041,0.59679949,0,0)" />
    <ellipse
       style="fill:#008000;stroke-width:0.28949"
       id="path26-0-1-7"
       cx="-0.99025422"
       cy="25.115274"
       rx="1.7325683"
       ry="1.1336732"
       transform="matrix(-0.59679949,0.80239041,0.80239041,0.59679949,0,0)" />
    <path
       d="m 18.67304,6.0460935 a 1.7325696,0.45953377 0 0 0 1.732572,0.459533 1.7325696,0.45953377 0 0 0 1.732567,-0.458815 v 8.2705235 a 1.7325685,0.45953346 0 0 0 -1.732567,-0.459174 1.7325685,0.45953346 0 0 0 -1.732572,0.459535 z"
       style="fill:#008000;stroke-width:0.275548"
       id="path21-0-7" />
    <ellipse
       style="fill:#008000;stroke-width:0.28949"
       id="path25-7-8"
       cx="-20.405611"
       cy="6.046093"
       rx="1.7325689"
       ry="1.2092513"
       transform="scale(-1,1)" />
    <ellipse
       style="fill:#008000;stroke-width:0.28949"
       id="path26-1-3"
       cx="-20.405611"
       cy="14.317698"
       rx="1.7325683"
       ry="1.1336732"
       transform="scale(-1,1)" />
    <path
       d="m 13.082255,27.248731 a 1.7325696,0.45953377 53.774281 0 1 1.394598,1.126087 1.7325696,0.45953377 53.774281 0 1 0.653766,1.6688 l 6.671797,-4.887615 A 1.7325685,0.45953346 53.774281 0 1 20.408111,24.029707 1.7325685,0.45953346 53.774281 0 1 19.754919,22.36048 Z"
       style="fill:#008000;stroke-width:0.275548"
       id="path21-01-3-07" />
    <ellipse
       style="fill:#008000;stroke-width:0.28949"
       id="path25-25-5-3"
       cx="-31.445183"
       cy="-5.5497303"
       rx="1.7325689"
       ry="1.2092513"
       transform="rotate(-126.22572)" />
    <ellipse
       style="fill:#008000;stroke-width:0.28949"
       id="path26-0-1-4"
       cx="-31.445183"
       cy="2.7218747"
       rx="1.7325683"
       ry="1.1336732"
       transform="rotate(-126.22572)" />
    <path
       d="m 18.649607,31.891036 a 1.7325696,0.45953377 0.41530131 0 1 1.735857,-0.446962 1.7325696,0.45953377 0.41530131 0 1 1.729196,0.471361 l 0.05995,-8.270307 a 1.7325685,0.45953346 0.41530131 0 1 -1.73585,0.446605 1.7325685,0.45953346 0.41530131 0 1 -1.729195,-0.472081 z"
       style="fill:#008000;stroke-width:0.275548"
       id="path21-0-9" />
    <ellipse
       style="fill:#008000;stroke-width:0.28949"
       id="path25-7-6"
       cx="-20.612841"
       cy="-31.755022"
       rx="1.7325689"
       ry="1.2092513"
       transform="rotate(-179.5847)" />
    <ellipse
       style="fill:#008000;stroke-width:0.28949"
       id="path26-1-5"
       cx="-20.612841"
       cy="-23.483416"
       rx="1.7325683"
       ry="1.1336732"
       transform="rotate(-179.5847)" />
    <path
       d="M 15.700276,27.260734 A 0.45953377,1.7325696 37.056321 0 0 14.2895,28.366486 0.45953377,1.7325696 37.056321 0 0 13.611611,30.025633 L 7.0113679,25.041817 A 0.45953346,1.7325685 37.056321 0 0 8.4218534,23.93585 0.45953346,1.7325685 37.056321 0 0 9.0991743,22.276267 Z"
       style="fill:#008000;stroke-width:0.275548"
       id="path21-01-3-0-1" />
    <ellipse
       style="fill:#008000;stroke-width:0.28949"
       id="path25-25-5-8-0"
       cx="-14.02684"
       cy="-28.956812"
       rx="1.7325689"
       ry="1.2092513"
       transform="matrix(0.60259979,-0.79804354,-0.79804354,-0.60259979,0,0)" />
    <ellipse
       style="fill:#008000;stroke-width:0.28949"
       id="path26-0-1-7-9"
       cx="-14.02684"
       cy="-20.685211"
       rx="1.7325683"
       ry="1.1336732"
       transform="matrix(0.60259979,-0.79804354,-0.79804354,-0.60259979,0,0)" />
    <path
       d="M 10.066214,31.821845 A 1.7325696,0.45953377 0.41530131 0 0 8.3370178,31.349766 1.7325696,0.45953377 0.41530131 0 0 6.6011706,31.796011 l 0.059947,-8.270306 a 1.7325685,0.45953346 0.41530131 0 0 1.7291932,0.47172 1.7325685,0.45953346 0.41530131 0 0 1.7358572,-0.446964 z"
       style="fill:#008000;stroke-width:0.275548"
       id="path21-0-7-9" />
    <ellipse
       style="fill:#008000;stroke-width:0.28949"
       id="path25-7-8-6"
       cx="8.5640326"
       cy="-31.748047"
       rx="1.7325689"
       ry="1.2092513"
       transform="matrix(0.99997373,0.00724831,0.00724831,-0.99997373,0,0)" />
    <ellipse
       style="fill:#008000;stroke-width:0.28949"
       id="path26-1-3-8"
       cx="8.5640326"
       cy="-23.476442"
       rx="1.7325683"
       ry="1.1336732"
       transform="matrix(0.99997373,0.00724831,0.00724831,-0.99997373,0,0)" />
  </g>
</svg>
