<?xml version="1.0" encoding="UTF-8" standalone="no"?>
<!-- Created with Inkscape (http://www.inkscape.org/) -->

<svg
   width="108"
   height="144"
   viewBox="0 0 28.574999 38.1"
   version="1.1"
   id="svg1"
   sodipodi:docname="9s.svg"
   inkscape:version="1.4.3 (0d15f75, 2025-12-25)"
   xmlns:inkscape="http://www.inkscape.org/namespaces/inkscape"
   xmlns:sodipodi="http://sodipodi.sourceforge.net/DTD/sodipodi-0.dtd"
   xmlns="http://www.w3.org/2000/svg"
   xmlns:svg="http://www.w3.org/2000/svg">
  <sodipodi:namedview
     id="namedview1"
     pagecolor="#ffffff"
     bordercolor="#000000"
     borderopacity="0.25"
     inkscape:showpageshadow="2"
     inkscape:pageopacity="0.0"
     inkscape:pagecheckerboard="0"
     inkscape:deskcolor="#d1d1d1"
     inkscape:document-units="mm"
     showguides="true"
     inkscape:zoom="4"
     inkscape:cx="42.25"
     inkscape:cy="93.125"
     inkscape:window-width="1920"
     inkscape:window-height="991"
     inkscape:window-x="-9"
     inkscape:window-y="-9"
     inkscape:window-maximized="1"
     inkscape:current-layer="layer1">
    <sodipodi:guide
       position="14.2875,19.05"
       orientation="0.80000001,0.59999999"
       id="guide1"
       inkscape:locked="false"
       inkscape:label=""
       inkscape:color="rgb(0,134,229)" />
    <sodipodi:guide
       position="14.2875,19.05"
       orientation="-1,0"
       id="guide2"
       inkscape:locked="false"
       inkscape:label=""
       inkscape:color="rgb(0,134,229)" />
    <sodipodi:guide
       position="53.999999,-33.899999"
       orientation="0,1"
       id="guide3"
       inkscape:locked="false"
       inkscape:label=""
       inkscape:color="rgb(0,134,229)" />
    <sodipodi:guide
       position="14.2875,12.7"
       orientation="0,1"
       id="guide4"
       inkscape:locked="false"
       inkscape:label=""
       inkscape:color="rgb(0,134,229)" />
    <sodipodi:guide
       position="14.2875,25.4"
       orientation="0,1"
       id="guide5"
       inkscape:locked="false"
       inkscape:label=""
       inkscape:color="rgb(0,134,229)" />
    <sodipodi:guide
       position="14.2875,31.749999"
       orientation="0,1"
       id="guide6"
       inkscape:locked="false"
       inkscape:label=""
       inkscape:color="rgb(0,134,229)" />
    <sodipodi:guide
       position="14.2875,6.3499999"
       orientation="0,1"
       id="guide7"
       inkscape:locked="false"
       inkscape:label=""
       inkscape:color="rgb(0,134,229)" />
    <sodipodi:guide
       position="14.2875,9.5249998"
       orientation="0,1"
       id="guide8"
       inkscape:locked="false"
       inkscape:label=""
       inkscape:color="rgb(0,134,229)" />
    <sodipodi:guide
       position="14.2875,28.575"
       orientation="0,1"
       id="guide9"
       inkscape:locked="false"
       inkscape:label=""
       inkscape:color="rgb(0,134,229)" />
    <sodipodi:guide
       position="14.2875,19.05"
       orientation="-0.8,0.6"
       id="guide10"
       inkscape:locked="false" />
    <sodipodi:guide
       position="14.2875,19.05"
       orientation="0,-1"
       id="guide12"
       inkscape:locked="false" />
    <sodipodi:guide
       position="34.696034,14.969314"
       orientation="-0.55470013,-0.83205034"
       id="guide13"
       inkscape:locked="false" />
    <sodipodi:guide
       position="14.2875,22.225"
       orientation="0,-1"
       id="guide15"
       inkscape:locked="false" />
    <sodipodi:guide
       position="14.2875,15.875"
       orientation="0,-1"
       id="guide16"
       inkscape:locked="false" />
    <sodipodi:guide
       position="-23.8125,1.7197918"
       orientation="-1,0"
       id="guide17"
       inkscape:locked="false"
       inkscape:label=""
       inkscape:color="rgb(0,134,229)" />
    <sodipodi:guide
       position="-21.166666,1.7859375"
       orientation="-1,0"
       id="guide18"
       inkscape:locked="false"
       inkscape:label=""
       inkscape:color="rgb(0,134,229)" />
    <sodipodi:guide
       position="9.5249998,19.05"
       orientation="-1,0"
       id="guide26"
       inkscape:locked="false"
       inkscape:label=""
       inkscape:color="rgb(0,134,229)" />
    <sodipodi:guide
       position="19.05,19.05"
       orientation="-1,0"
       id="guide27"
       inkscape:locked="false"
       inkscape:label=""
       inkscape:color="rgb(0,134,229)" />
    <sodipodi:guide
       position="7.1437499,19.05"
       orientation="-1,0"
       id="guide28"
       inkscape:locked="false"
       inkscape:label=""
       inkscape:color="rgb(0,134,229)" />
    <sodipodi:guide
       position="21.43125,12.7"
       orientation="-1,0"
       id="guide29"
       inkscape:locked="false"
       inkscape:label=""
       inkscape:color="rgb(0,134,229)" />
  </sodipodi:namedview>
  <defs
     id="defs1" />
  <g
     inkscape:label="图层 1"
     inkscape:groupmode="layer"
     id="layer1">
    <path
       d="m 8.4666662,15.854894 a 1.3229171,0.35088061 0 0 1 -1.3229185,0.35088 1.3229171,0.35088061 0 0 1 -1.322915,-0.350332 v 6.315024 a 1.3229162,0.35088037 0 0 1 1.322915,-0.350606 1.3229162,0.35088037 0 0 1 1.3229185,0.350881 z"
       style="fill:#008000;stroke-width:0.210397"
       id="path21" />
    <ellipse
       style="fill:#008000;stroke-width:0.221042"
       id="path25"
       cx="7.1437492"
       cy="15.854896"
       rx="1.3229165"
       ry="0.92333329" />
    <ellipse
       style="fill:#008000;stroke-width:0.221042"
       id="path26"
       cx="7.1437492"
       cy="22.17074"
       rx="1.322916"
       ry="0.86562502" />
    <path
       d="m 15.610417,15.892076 a 1.3229171,0.35088061 0 0 1 -1.322919,0.35088 1.3229171,0.35088061 0 0 1 -1.322915,-0.350332 v 6.315024 a 1.3229162,0.35088037 0 0 1 1.322915,-0.350606 1.3229162,0.35088037 0 0 1 1.322919,0.350881 z"
       style="fill:#ff0000;stroke-width:0.210397"
       id="path21-01" />
    <ellipse
       style="fill:#ff0000;stroke-width:0.221042"
       id="path25-25"
       cx="14.2875"
       cy="15.892076"
       rx="1.3229165"
       ry="0.92333329" />
    <ellipse
       style="fill:#ff0000;stroke-width:0.221042"
       id="path26-0"
       cx="14.2875"
       cy="22.207924"
       rx="1.322916"
       ry="0.86562502" />
    <path
       d="m 15.610417,26.251861 a 1.3229171,0.35088061 0 0 1 -1.322919,0.350881 1.3229171,0.35088061 0 0 1 -1.322915,-0.350333 v 6.315026 a 1.3229162,0.35088037 0 0 1 1.322915,-0.350606 1.3229162,0.35088037 0 0 1 1.322919,0.35088 z"
       style="fill:#ff0000;stroke-width:0.210397"
       id="path21-01-3" />
    <ellipse
       style="fill:#ff0000;stroke-width:0.221042"
       id="path25-25-5"
       cx="14.287499"
       cy="26.251862"
       rx="1.3229165"
       ry="0.92333329" />
    <ellipse
       style="fill:#ff0000;stroke-width:0.221042"
       id="path26-0-1"
       cx="14.287499"
       cy="32.567711"
       rx="1.322916"
       ry="0.86562502" />
    <path
       d="m 22.754166,15.854894 a 1.3229171,0.35088061 0 0 1 -1.322919,0.35088 1.3229171,0.35088061 0 0 1 -1.322915,-0.350331 v 6.315023 a 1.3229162,0.35088037 0 0 1 1.322915,-0.350606 1.3229162,0.35088037 0 0 1 1.322919,0.350881 z"
       style="fill:#008000;stroke-width:0.210397"
       id="path21-8" />
    <ellipse
       style="fill:#008000;stroke-width:0.221042"
       id="path25-2"
       cx="21.431248"
       cy="15.854896"
       rx="1.3229165"
       ry="0.92333329" />
    <ellipse
       style="fill:#008000;stroke-width:0.221042"
       id="path26-6"
       cx="21.431248"
       cy="22.17074"
       rx="1.322916"
       ry="0.86562502" />
    <path
       d="m 8.4666669,5.389485 a 1.3229171,0.35088061 0 0 1 -1.322919,0.35088 1.3229171,0.35088061 0 0 1 -1.322915,-0.350332 v 6.315024 a 1.3229162,0.35088037 0 0 1 1.322915,-0.350606 1.3229162,0.35088037 0 0 1 1.322919,0.350881 z"
       style="fill:#008000;stroke-width:0.210397"
       id="path21-4" />
    <ellipse
       style="fill:#008000;stroke-width:0.221042"
       id="path25-0"
       cx="7.1437502"
       cy="5.3894873"
       rx="1.3229165"
       ry="0.92333329" />
    <ellipse
       style="fill:#008000;stroke-width:0.221042"
       id="path26-61"
       cx="7.1437502"
       cy="11.705331"
       rx="1.322916"
       ry="0.86562502" />
    <path
       d="m 15.610417,5.426667 a 1.3229171,0.35088061 0 0 1 -1.322919,0.35088 1.3229171,0.35088061 0 0 1 -1.322915,-0.350332 v 6.315024 a 1.3229162,0.35088037 0 0 1 1.322915,-0.350606 1.3229162,0.35088037 0 0 1 1.322919,0.350881 z"
       style="fill:#ff0000;stroke-width:0.210397"
       id="path21-01-8" />
    <ellipse
       style="fill:#ff0000;stroke-width:0.221042"
       id="path25-25-9"
       cx="14.2875"
       cy="5.4266672"
       rx="1.3229165"
       ry="0.92333329" />
    <ellipse
       style="fill:#ff0000;stroke-width:0.221042"
       id="path26-0-8"
       cx="14.2875"
       cy="11.742515"
       rx="1.322916"
       ry="0.86562502" />
    <path
       d="m 22.754166,5.389485 a 1.3229171,0.35088061 0 0 1 -1.322918,0.35088 1.3229171,0.35088061 0 0 1 -1.322915,-0.350331 v 6.315023 a 1.3229162,0.35088037 0 0 1 1.322915,-0.350606 1.3229162,0.35088037 0 0 1 1.322919,0.350881 z"
       style="fill:#008000;stroke-width:0.210397"
       id="path21-8-4" />
    <ellipse
       style="fill:#008000;stroke-width:0.221042"
       id="path25-2-1"
       cx="21.431248"
       cy="5.3894873"
       rx="1.3229165"
       ry="0.92333329" />
    <ellipse
       style="fill:#008000;stroke-width:0.221042"
       id="path26-6-4"
       cx="21.431248"
       cy="11.705331"
       rx="1.322916"
       ry="0.86562502" />
    <path
       d="m 8.4666668,26.251862 a 1.3229171,0.35088061 0 0 1 -1.3229185,0.35088 1.3229171,0.35088061 0 0 1 -1.322915,-0.350332 v 6.315024 a 1.3229162,0.35088037 0 0 1 1.322915,-0.350606 1.3229162,0.35088037 0 0 1 1.3229185,0.350881 z"
       style="fill:#008000;stroke-width:0.210397"
       id="path21-0" />
    <ellipse
       style="fill:#008000;stroke-width:0.221042"
       id="path25-7"
       cx="7.1437502"
       cy="26.251862"
       rx="1.3229165"
       ry="0.92333329" />
    <ellipse
       style="fill:#008000;stroke-width:0.221042"
       id="path26-1"
       cx="7.1437502"
       cy="32.567711"
       rx="1.322916"
       ry="0.86562502" />
    <path
       d="m 22.754167,26.251862 a 1.3229171,0.35088061 0 0 1 -1.322919,0.35088 1.3229171,0.35088061 0 0 1 -1.322915,-0.350332 v 6.315024 a 1.3229162,0.35088037 0 0 1 1.322915,-0.350606 1.3229162,0.35088037 0 0 1 1.322919,0.350881 z"
       style="fill:#008000;stroke-width:0.210397"
       id="path21-0-3" />
    <ellipse
       style="fill:#008000;stroke-width:0.221042"
       id="path25-7-3"
       cx="21.43125"
       cy="26.251862"
       rx="1.3229165"
       ry="0.92333329" />
    <ellipse
       style="fill:#008000;stroke-width:0.221042"
       id="path26-1-5"
       cx="21.43125"
       cy="32.567711"
       rx="1.322916"
       ry="0.86562502" />
  </g>
</svg>
